HIERARCHY
ROOT Hips
{
  OFFSET 63.9267 104.415 339.856
  CHANNELS 6 Xposition Yposition Zposition Zrotation Xrotation Yrotation
  JOINT RightUpLeg
  {
    OFFSET -8.9458 -8.66707 0.101652
    CHANNELS 3 Zrotation Xrotation Yrotation
    JOINT RightLeg
    {
      OFFSET 0 -44.4227 1.3727
      CHANNELS 3 Zrotation Xrotation Yrotation
      JOINT RightFoot
      {
        OFFSET 0.253549 -42.0924 -1.46059
        CHANNELS 3 Zrotation Xrotation Yrotation
        JOINT RightToes
        {
          OFFSET 0.04 -4.41509 8.4991
          CHANNELS 3 Zrotation Xrotation Yrotation
          End Site
          {
            OFFSET -0.08 -0.137448 9.77979
          }
        }
      }
    }
  }
  JOINT Spine
  {
    OFFSET 0 11.8905 0
    CHANNELS 3 Zrotation Xrotation Yrotation
    JOINT Spine1
    {
      OFFSET 0 25.6574 0.127663
      CHANNELS 3 Zrotation Xrotation Yrotation
      JOINT HEad
      {
        OFFSET 0 8.73416 0.011341
        CHANNELS 3 Zrotation Xrotation Yrotation
        End Site
        {
          OFFSET -0.29 12.7742 2.51395
        }
      }
      JOINT LeftShoulder1
      {
        OFFSET 8.99 -0.362252 -0.22
        CHANNELS 3 Zrotation Xrotation Yrotation
        JOINT LeftArm
        {
          OFFSET 10.2827 -0.00338 0.322123
          CHANNELS 3 Zrotation Xrotation Yrotation
          JOINT LeftForeArm
          {
            OFFSET 32.7669 0.099144 -1.42434
            CHANNELS 3 Zrotation Xrotation Yrotation
            JOINT LeftHand
            {
              OFFSET 27.5643 0.085362 1.02216
              CHANNELS 3 Zrotation Xrotation Yrotation
              End Site
              {
                OFFSET 16.7443 -0.6 1.50291
              }
            }
          }
        }
      }
      JOINT RightShoulder
      {
        OFFSET -8.99 -0.362252 -0.22
        CHANNELS 3 Zrotation Xrotation Yrotation
        JOINT RightArm
        {
          OFFSET -10.2827 -0.00338 0.322123
          CHANNELS 3 Zrotation Xrotation Yrotation
          JOINT RightForeArm
          {
            OFFSET -32.8971 0.099144 -1.42434
            CHANNELS 3 Zrotation Xrotation Yrotation
            JOINT RightHand
            {
              OFFSET -27.4921 0.085362 1.02216
              CHANNELS 3 Zrotation Xrotation Yrotation
              End Site
              {
                OFFSET -16.6312 -0.6 1.50291
              }
            }
          }
        }
      }
    }
  }
  JOINT LeftUpLeg
  {
    OFFSET 8.9458 -8.66707 0.101652
    CHANNELS 3 Zrotation Xrotation Yrotation
    JOINT LeftLeg
    {
      OFFSET 0 -44.4227 1.3727
      CHANNELS 3 Zrotation Xrotation Yrotation
      JOINT LeftFoot
      {
        OFFSET -0.253549 -42.0924 -1.46059
        CHANNELS 3 Zrotation Xrotation Yrotation
        JOINT LeftToes
        {
          OFFSET -0.04 -4.41509 8.4991
          CHANNELS 3 Zrotation Xrotation Yrotation
          End Site
          {
            OFFSET 0.08 -0.047448 9.77979
          }
        }
      }
    }
  }
}
MOTION
Frames:	12
Frame Time:	0.0166667
-8.8831	95.4505	-266.4796	-8.08655	6.87914	-177.405	-18.8051	-7.31658	4.70467	53.1254	61.1047	-61.1159	9.99335	-2.20158	-17.8577	0.0462048	0.000533964	0.662642	-0.526352	-3.22059	-0.521063	-1.08466	-6.43332	-1.07454	3.55216	16.2927	-15.9473	7.21E-16	-3.18E-15	-1.99E-16	-53.9079	8.20785	32.7127	-8.04555	-4.31941	-22.8536	13.2279	9.73312	10.4864	7.21E-16	-3.18E-15	-1.99E-16	61.2984	14.5106	-26.6777	1.21469	0.0454544	95.3027	-19.8497	3.93471	15.0338	5.03506	-22.9073	8.42811	4.1924	38.9261	-13.5875	-23.5294	-9.8628	-28.2496	1.57E-14	3.15E-14	1.27E-14
-8.5358	93.5404	-266.5338	-9.06575	8.78768	-177.56	-20.644	-8.53297	1.83627	60.5802	64.8569	-69.6481	8.55404	-1.32436	-19.9046	0.0462048	0.000533964	0.662642	-0.863226	-2.93126	-0.777215	-1.76972	-5.84738	-1.60194	3.17357	17.0705	-16.9776	-9.94E-17	0.00E+00	-1.09E-15	-55.2226	10.3066	30.541	-8.28512	-3.97905	-23.4994	12.173	8.45911	10.1245	-9.94E-17	0.00E+00	-1.09E-15	64.9182	15.4767	-30.3835	1.2333	-1.76254	90.6822	-20.4813	4.20854	14.2461	4.29451	-22.4427	6.08246	2.99635	42.2711	-9.86849	-23.7532	-10.1734	-27.6495	1.45E-14	3.30E-14	6.36E-15
-8.216	92.5947	-267.3934	-8.99598	9.14663	-179.961	-21.1683	-11.8622	0.579115	68.6256	67.3332	-79.0295	7.97574	-0.608063	-20.4639	0.0462048	0.000533964	0.662642	-0.979212	-2.78333	-0.479035	-1.98524	-5.55516	-1.00764	3.10264	16.7715	-17.5649	4.97E-16	3.18E-15	7.95E-16	-55.4128	12.2094	26.5469	-9.02499	-4.12378	-23.9498	11.6539	7.48537	10.0947	4.97E-16	3.18E-15	7.95E-16	68.0588	14.9277	-32.3228	1.57232	-1.41049	84.4209	-22.1258	2.88029	14.5258	5.34462	-22.2869	8.89624	3.84967	44.7602	-12.8226	-22.9834	-12.5668	-24.6992	1.51E-14	3.13E-14	3.18E-15
-7.7499	92.1466	-268.6699	-8.96935	9.45973	177.502	-21.3002	-15.5366	0.274355	76.6197	68.6747	-88.3856	8.86496	0.640437	-20.3965	0.0462048	0.000533964	0.662642	-1.04882	-2.62694	-0.318668	-2.11561	-5.24476	-0.686725	2.87084	16.6975	-17.307	-1.19E-15	6.36E-15	7.95E-16	-56.0179	12.5966	23.7487	-9.08738	-3.79027	-25.876	11.9225	7.1575	10.1668	-1.19E-15	6.36E-15	7.95E-16	71.7588	15.5111	-33.1702	2.75244	-1.26634	76.5316	-25.5663	-0.778317	15.2092	6.73532	-20.8652	12.5439	4.85206	45.5089	-15.8389	-23.2246	-14.4009	-24.2502	1.55E-14	3.08E-14	1.27E-14
-6.7874	92.1428	-269.7634	-9.22459	9.18605	176.126	-21.3016	-19.4808	-0.186638	81.3752	68.4066	-93.619	10.329	1.97232	-21.6711	0.0462048	0.000533964	0.662642	-1.14129	-2.76237	-0.526603	-2.31202	-5.51078	-1.11035	2.6797	17.3635	-16.7964	-1.99E-16	0.00E+00	-1.59E-15	-57.6387	11.3319	22.1812	-8.04471	-2.22814	-29.1933	13.0773	7.14968	9.85663	-1.99E-16	0.00E+00	-1.59E-15	72.4102	15.3611	-34.3129	8.30104	-0.183493	69.3484	-29.1633	-2.40322	14.4294	7.62991	-20.085	10.8984	1.58459	45.7331	-10.6378	-24.4145	-14.2158	-24.8403	1.72E-14	3.22E-14	9.54E-15
-6.0819	92.416	-271.1135	-9.03621	8.23078	174.848	-20.2627	-23.8725	-0.411893	82.0487	66.9377	-93.9461	11.3664	2.44789	-23.7822	0.0462048	0.000533964	0.662642	-1.09902	-2.97471	-0.716261	-2.23977	-5.93209	-1.49278	2.66121	17.792	-16.3206	3.98E-16	0.00E+00	-1.59E-15	-59.5757	10.4719	19.5441	-6.82753	-0.703387	-32.7425	14.4735	6.73073	9.26861	3.98E-16	0.00E+00	-1.59E-15	72.6241	14.0904	-35.9267	12.2081	1.48704	62.9128	-30.4383	-2.34116	12.9601	8.49276	-19.9445	9.93308	0.0779651	45.8908	-7.01026	-25.3535	-14.1933	-25.296	1.38E-14	3.22E-14	0.00E+00
-5.252	92.9126	-272.7174	-8.67163	7.75225	173.13	-18.5275	-27.5773	0.297753	79.5215	64.8733	-90.6952	11.333	2.16817	-25.3343	0.0462048	0.000533964	0.662642	-1.04722	-3.04502	-0.818837	-2.14251	-6.07143	-1.69711	2.6096	18.2245	-15.407	3.98E-16	0.00E+00	3.18E-15	-60.859	11.0542	16.5685	-6.18866	0.277604	-36.6495	14.3775	6.01743	8.48773	3.98E-16	0.00E+00	3.18E-15	72.9944	13.7076	-38.0187	12.7887	3.72134	57.8597	-29.6818	-1.68868	12.09	9.45507	-18.2754	10.7614	-0.045505	44.837	-6.36056	-26.185	-14.7799	-25.4967	1.67E-14	3.26E-14	3.18E-15
-4.4421	93.5713	-274.4596	-8.65227	7.4464	171.443	-17.1819	-30.686	1.2247	75.602	62.6526	-85.7006	11.0621	1.26838	-26.2282	0.0462048	0.000533964	0.662642	-1.11553	-3.13847	-0.934864	-2.28741	-6.25489	-1.93535	2.43141	18.6007	-14.2098	7.95E-16	0.00E+00	1.59E-15	-61.1079	12.174	14.0532	-5.99299	1.52213	-41.5358	12.5902	5.87015	7.67177	7.95E-16	0.00E+00	1.59E-15	72.8033	12.6497	-40.5173	10.6101	8.08589	54.8137	-27.9714	-0.577989	11.9364	9.70477	-16.1586	11.5524	0.279841	43.1897	-5.9764	-26.6113	-14.5589	-25.977	1.37E-14	3.30E-14	6.36E-15
-3.6953	94.3218	-276.4033	-8.72743	7.02955	170.057	-16.3269	-33.1832	1.61497	70.6091	60.3321	-80.0375	10.6834	0.297744	-26.475	0.0462048	0.000533964	0.662642	-1.20195	-3.21557	-1.11913	-2.4725	-6.40348	-2.31128	2.20846	18.6339	-12.9578	-1.77E-31	6.36E-15	1.59E-15	-60.9628	13.5827	11.7313	-5.28167	2.70907	-47.4159	10.0914	6.55207	6.98382	-1.77E-31	6.36E-15	1.59E-15	72.0672	11.1943	-42.808	7.56643	13.4634	53.4205	-26.1193	0.561272	11.8367	9.49572	-14.0094	11.5841	0.461998	41.2056	-5.39271	-26.6193	-13.9877	-26.647	1.25E-14	3.18E-14	3.18E-15
-3.0403	95.0805	-278.5606	-8.83339	6.41315	169.387	-16.0961	-34.9371	0.682733	64.432	57.8487	-74.2477	10.1994	-0.698363	-26.3001	0.0462048	0.000533964	0.662642	-1.27639	-3.34246	-1.52252	-2.64816	-6.64608	-3.12746	1.8793	18.6095	-11.5856	1.59E-15	1.59E-15	4.77E-15	-60.7854	15.1605	10.1692	-4.13072	3.18955	-54.3328	8.13497	8.14927	6.05802	1.59E-15	1.59E-15	4.77E-15	70.6843	9.4997	-45.1628	5.50974	18.3425	53.1654	-23.5506	1.62362	11.3968	8.87211	-11.7393	10.573	0.657234	38.2938	-4.52725	-26.7659	-13.0959	-28.3279	1.19E-14	3.18E-14	9.54E-15
-2.1701	95.7645	-280.691	-8.14626	6.52101	167.718	-14.5406	-35.4581	0.698178	57.6378	55.2702	-68.7737	10.0965	-1.67389	-25.4897	0.0462048	0.000533964	0.662642	-1.0808	-3.22628	-1.63945	-2.25908	-6.41686	-3.34773	1.44544	18.7694	-9.98094	-1.59E-15	-4.77E-15	-3.18E-15	-60.5324	16.4777	9.50401	-3.31431	2.91634	-61.8219	7.59936	10.3863	4.63043	-1.59E-15	-4.77E-15	-3.18E-15	69.1407	8.44129	-47.5868	4.93872	21.3354	53.2276	-20.1423	1.93229	10.702	9.06208	-8.71174	9.51008	0.528033	36.3206	-2.82962	-26.6208	-12.4572	-30.3277	1.43E-14	3.26E-14	6.36E-15
-1.2045	96.3744	-282.6518	-7.79487	6.77339	165.67	-13.2326	-35.341	0.594177	50.2918	52.5231	-63.5026	9.43377	-2.48086	-24.1407	0.0462048	0.000533964	0.662642	-0.999411	-3.13854	-1.62686	-2.09247	-6.2441	-3.31597	1.0666	19.1457	-8.31171	-7.95E-16	1.59E-15	-6.36E-15	-60.1539	17.0144	9.44976	-3.06041	2.48851	-69.0378	8.6002	12.186	2.03366	-7.95E-16	1.59E-15	-6.36E-15	68.537	8.33328	-49.7011	5.28951	21.7866	52.7931	-16.7023	1.87597	10.0744	8.8843	-5.88583	8.61399	0.513689	34.8445	-1.0206	-26.37	-11.6501	-32.3382	1.19E-14	3.18E-14	6.36E-15
